<?xml version="1.0" encoding="UTF-8"?>
<svg width="512px" height="512px" viewBox="0 0 512 512" version="1.1" xmlns="http://www.w3.org/2000/svg">
    <title>Beef</title>
    <g stroke="none" stroke-width="1" fill="none" fill-rule="evenodd">
        <circle fill="#F8E9E9" cx="256" cy="256" r="256"></circle>
        <path d="M354,164 C396.526,164 406,192.924 406,219 C406,245.076 391.359,266 354,266 C344.059,266 334.059,260.5 312,260.5 C289.941,260.5 184,260.5 156,260.5 C128,260.5 106,241.167 106,219 C106,196.833 128,172 156,172 C184,172 289.941,172 312,172 C334.059,172 344.059,164 354,164 Z" fill="#A52A2A"></path>
        <path d="M368,194 C383.464,194 396,206.088 396,221 C396,235.912 383.464,248 368,248 C352.536,248 340,235.912 340,221 C340,206.088 352.536,194 368,194 Z" fill="#8B0000"></path>
        <path d="M144,194 C159.464,194 172,206.088 172,221 C172,235.912 159.464,248 144,248 C128.536,248 116,235.912 116,221 C116,206.088 128.536,194 144,194 Z" fill="#8B0000"></path>
        <path d="M354,266 C379.346,266 396,280.088 396,298 C396,315.912 379.346,330 354,330 C328.654,330 312,315.912 312,298 C312,280.088 328.654,266 354,266 Z" fill="#A52A2A"></path>
        <path d="M156,266 C181.346,266 198,280.088 198,298 C198,315.912 181.346,330 156,330 C130.654,330 114,315.912 114,298 C114,280.088 130.654,266 156,266 Z" fill="#A52A2A"></path>
        <path d="M250,260.5 C275.346,260.5 292,272.088 292,287 C292,301.912 275.346,313.5 250,313.5 C224.654,313.5 208,301.912 208,287 C208,272.088 224.654,260.5 250,260.5 Z" fill="#A52A2A"></path>
        <path d="M345,190 C350.523,190 355,194.477 355,200 C355,205.523 350.523,210 345,210 C339.477,210 335,205.523 335,200 C335,194.477 339.477,190 345,190 Z" fill="#FFFFFF" opacity="0.3"></path>
        <path d="M167,190 C172.523,190 177,194.477 177,200 C177,205.523 172.523,210 167,210 C161.477,210 157,205.523 157,200 C157,194.477 161.477,190 167,190 Z" fill="#FFFFFF" opacity="0.3"></path>
    </g>
</svg>