<?xml version="1.0" encoding="UTF-8"?>
<svg width="512px" height="512px" viewBox="0 0 512 512" version="1.1" xmlns="http://www.w3.org/2000/svg">
    <title>Dairy</title>
    <g stroke="none" stroke-width="1" fill="none" fill-rule="evenodd">
        <circle fill="#F9F9F9" cx="256" cy="256" r="256"></circle>
        <path d="M240,116 L322,116 L322,166 L240,166 L240,116 Z" fill="#F5F5F5" stroke="#D3D3D3" stroke-width="3"></path>
        <path d="M215,166 L347,166 L326,376 C326,382.627 320.627,388 314,388 L248,388 C241.373,388 236,382.627 236,376 L215,166 Z" fill="#FFFFFF" stroke="#E6E6E6" stroke-width="3"></path>
        <path d="M215,166 L347,166 L342,210 L220,210 L215,166 Z" fill="#F0F0F0"></path>
        <path d="M220,210 L342,210 L337,254 L225,254 L220,210 Z" fill="#F8F8F8"></path>
        <path d="M225,254 L337,254 L332,298 L230,298 L225,254 Z" fill="#F0F0F0"></path>
        <path d="M230,298 L332,298 L326,376 C326,382.627 320.627,388 314,388 L248,388 C241.373,388 236,382.627 236,376 L230,298 Z" fill="#F8F8F8"></path>
        <ellipse fill="#FFFFFF" cx="281" cy="210" rx="5" ry="5"></ellipse>
        <ellipse fill="#FFFFFF" cx="281" cy="254" rx="5" ry="5"></ellipse>
        <ellipse fill="#FFFFFF" cx="281" cy="298" rx="5" ry="5"></ellipse>
        <path d="M240,360 C245.523,360 250,364.477 250,370 C250,375.523 245.523,380 240,380 C234.477,380 230,375.523 230,370 C230,364.477 234.477,360 240,360 Z" fill="#FFFFFF"></path>
        <path d="M255,320 C265.493,320 274,328.507 274,339 C274,349.493 265.493,358 255,358 C244.507,358 236,349.493 236,339 C236,328.507 244.507,320 255,320 Z" fill="#FFFFFF"></path>
        <path d="M290,350 C295.523,350 300,354.477 300,360 C300,365.523 295.523,370 290,370 C284.477,370 280,365.523 280,360 C280,354.477 284.477,350 290,350 Z" fill="#FFFFFF"></path>
        <path d="M275,230 C280.523,230 285,234.477 285,240 C285,245.523 280.523,250 275,250 C269.477,250 265,245.523 265,240 C265,234.477 269.477,230 275,230 Z" fill="#FFFFFF"></path>
        <path d="M250,270 C255.523,270 260,274.477 260,280 C260,285.523 255.523,290 250,290 C244.477,290 240,285.523 240,280 C240,274.477 244.477,270 250,270 Z" fill="#FFFFFF"></path>
        <path d="M295,270 C300.523,270 305,274.477 305,280 C305,285.523 300.523,290 295,290 C289.477,290 285,285.523 285,280 C285,274.477 289.477,270 295,270 Z" fill="#FFFFFF"></path>
        <path d="M220,190 C225.523,190 230,194.477 230,200 C230,205.523 225.523,210 220,210 C214.477,210 210,205.523 210,200 C210,194.477 214.477,190 220,190 Z" fill="#FFFFFF"></path>
        <path d="M315,190 C320.523,190 325,194.477 325,200 C325,205.523 320.523,210 315,210 C309.477,210 305,205.523 305,200 C305,194.477 309.477,190 315,190 Z" fill="#FFFFFF"></path>
    </g>
</svg>