<?xml version="1.0" encoding="UTF-8"?>
<svg width="512px" height="512px" viewBox="0 0 512 512" version="1.1" xmlns="http://www.w3.org/2000/svg">
    <title>Rice</title>
    <g stroke="none" stroke-width="1" fill="none" fill-rule="evenodd">
        <circle fill="#F8F8F8" cx="256" cy="256" r="256"></circle>
        <path d="M160,200 L352,200 L352,360 C352,371.046 343.046,380 332,380 L180,380 C168.954,380 160,371.046 160,360 L160,200 Z" fill="#FFFAFA"></path>
        <path d="M160,200 L352,200 L352,230 L160,230 L160,200 Z" fill="#F5F5F5"></path>
        <path d="M180,140 L332,140 L352,200 L160,200 L180,140 Z" fill="#F8F8F8"></path>
        <ellipse fill="#F0F0F0" cx="175" cy="265" rx="5" ry="5"></ellipse>
        <ellipse fill="#F0F0F0" cx="195" cy="245" rx="5" ry="5"></ellipse>
        <ellipse fill="#F0F0F0" cx="215" cy="265" rx="5" ry="5"></ellipse>
        <ellipse fill="#F0F0F0" cx="235" cy="245" rx="5" ry="5"></ellipse>
        <ellipse fill="#F0F0F0" cx="255" cy="265" rx="5" ry="5"></ellipse>
        <ellipse fill="#F0F0F0" cx="275" cy="245" rx="5" ry="5"></ellipse>
        <ellipse fill="#F0F0F0" cx="295" cy="265" rx="5" ry="5"></ellipse>
        <ellipse fill="#F0F0F0" cx="315" cy="245" rx="5" ry="5"></ellipse>
        <ellipse fill="#F0F0F0" cx="335" cy="265" rx="5" ry="5"></ellipse>
        <ellipse fill="#F0F0F0" cx="185" cy="285" rx="5" ry="5"></ellipse>
        <ellipse fill="#F0F0F0" cx="205" cy="305" rx="5" ry="5"></ellipse>
        <ellipse fill="#F0F0F0" cx="225" cy="285" rx="5" ry="5"></ellipse>
        <ellipse fill="#F0F0F0" cx="245" cy="305" rx="5" ry="5"></ellipse>
        <ellipse fill="#F0F0F0" cx="265" cy="285" rx="5" ry="5"></ellipse>
        <ellipse fill="#F0F0F0" cx="285" cy="305" rx="5" ry="5"></ellipse>
        <ellipse fill="#F0F0F0" cx="305" cy="285" rx="5" ry="5"></ellipse>
        <ellipse fill="#F0F0F0" cx="325" cy="305" rx="5" ry="5"></ellipse>
        <ellipse fill="#F0F0F0" cx="175" cy="325" rx="5" ry="5"></ellipse>
        <ellipse fill="#F0F0F0" cx="195" cy="345" rx="5" ry="5"></ellipse>
        <ellipse fill="#F0F0F0" cx="215" cy="325" rx="5" ry="5"></ellipse>
        <ellipse fill="#F0F0F0" cx="235" cy="345" rx="5" ry="5"></ellipse>
        <ellipse fill="#F0F0F0" cx="255" cy="325" rx="5" ry="5"></ellipse>
        <ellipse fill="#F0F0F0" cx="275" cy="345" rx="5" ry="5"></ellipse>
        <ellipse fill="#F0F0F0" cx="295" cy="325" rx="5" ry="5"></ellipse>
        <ellipse fill="#F0F0F0" cx="315" cy="345" rx="5" ry="5"></ellipse>
        <ellipse fill="#F0F0F0" cx="335" cy="325" rx="5" ry="5"></ellipse>
    </g>
</svg>