<?xml version="1.0" encoding="UTF-8"?>
<svg width="512px" height="512px" viewBox="0 0 512 512" version="1.1" xmlns="http://www.w3.org/2000/svg">
    <title>Spices</title>
    <g stroke="none" stroke-width="1" fill="none" fill-rule="evenodd">
        <circle fill="#F8F8F8" cx="256" cy="256" r="256"></circle>
        <g transform="translate(126, 116)">
            <!-- Salt Shaker -->
            <path d="M30,10 L60,10 L60,30 L30,30 L30,10 Z" fill="#F5DEB3"></path>
            <path d="M25,30 L65,30 L70,135 C70,143.284 63.284,150 55,150 L35,150 C26.716,150 20,143.284 20,135 L25,30 Z" fill="#FFFFFF"></path>
            <path d="M35,50 C40.523,50 45,54.477 45,60 C45,65.523 40.523,70 35,70 C29.477,70 25,65.523 25,60 C25,54.477 29.477,50 35,50 Z" fill="#F0F0F0"></path>
            <path d="M40,85 C45.523,85 50,89.477 50,95 C50,100.523 45.523,105 40,105 C34.477,105 30,100.523 30,95 C30,89.477 34.477,85 40,85 Z" fill="#F0F0F0"></path>
            <path d="M55,110 C60.523,110 65,114.477 65,120 C65,125.523 60.523,130 55,130 C49.477,130 45,125.523 45,120 C45,114.477 49.477,110 55,110 Z" fill="#F0F0F0"></path>
            <path d="M35,110 C40.523,110 45,114.477 45,120 C45,125.523 40.523,130 35,130 C29.477,130 25,125.523 25,120 C25,114.477 29.477,110 35,110 Z" fill="#F0F0F0"></path>
            
            <!-- Pepper Shaker -->
            <path d="M180,10 L210,10 L210,30 L180,30 L180,10 Z" fill="#D2B48C"></path>
            <path d="M175,30 L215,30 L220,135 C220,143.284 213.284,150 205,150 L185,150 C176.716,150 170,143.284 170,135 L175,30 Z" fill="#696969"></path>
            <path d="M185,50 C190.523,50 195,54.477 195,60 C195,65.523 190.523,70 185,70 C179.477,70 175,65.523 175,60 C175,54.477 179.477,50 185,50 Z" fill="#808080"></path>
            <path d="M190,85 C195.523,85 200,89.477 200,95 C200,100.523 195.523,105 190,105 C184.477,105 180,100.523 180,95 C180,89.477 184.477,85 190,85 Z" fill="#808080"></path>
            <path d="M205,110 C210.523,110 215,114.477 215,120 C215,125.523 210.523,130 205,130 C199.477,130 195,125.523 195,120 C195,114.477 199.477,110 205,110 Z" fill="#808080"></path>
            <path d="M185,110 C190.523,110 195,114.477 195,120 C195,125.523 190.523,130 185,130 C179.477,130 175,125.523 175,120 C175,114.477 179.477,110 185,110 Z" fill="#808080"></path>
            
            <!-- Spices Jar -->
            <path d="M95,55 L145,55 L145,75 L95,75 L95,55 Z" fill="#8B4513"></path>
            <path d="M100,75 L140,75 L140,145 C140,153.284 133.284,160 125,160 L115,160 C106.716,160 100,153.284 100,145 L100,75 Z" fill="#D2691E"></path>
            <path d="M100,75 L140,75 L140,95 L100,95 L100,75 Z" fill="#CD853F"></path>
            <path d="M100,130 L140,130 L140,145 C140,153.284 133.284,160 125,160 L115,160 C106.716,160 100,153.284 100,145 L100,130 Z" fill="#CD853F"></path>
            <path d="M120,40 L120,55" stroke="#8B4513" stroke-width="5" stroke-linecap="round"></path>
            <path d="M115,45 L125,45" stroke="#8B4513" stroke-width="5" stroke-linecap="round"></path>
            
            <!-- Spice Bottle -->
            <path d="M110,190 L130,190 L135,280 C135,285.523 130.523,290 125,290 L115,290 C109.477,290 105,285.523 105,280 L110,190 Z" fill="#FF4500"></path>
            <path d="M105,180 L135,180 L135,190 L105,190 L105,180 Z" fill="#FF6347"></path>
            <path d="M110,170 L130,170 L130,180 L110,180 L110,170 Z" fill="#FF6347"></path>
            <path d="M117.5,150 L122.5,150 L122.5,170 L117.5,170 L117.5,150 Z" fill="#D2691E"></path>
        </g>
    </g>
</svg>