<?xml version="1.0" encoding="UTF-8"?>
<svg width="512px" height="512px" viewBox="0 0 512 512" version="1.1" xmlns="http://www.w3.org/2000/svg">
    <title>Vinegar</title>
    <g stroke="none" stroke-width="1" fill="none" fill-rule="evenodd">
        <circle fill="#F8F8F8" cx="256" cy="256" r="256"></circle>
        <path d="M215,128 L300,128 L300,175 C300,175 319,192 319,212 L319,370 C319,380.493 310.493,389 300,389 L215,389 C204.507,389 196,380.493 196,370 L196,212 C196,192 215,175 215,175 L215,128 Z" fill="#FFF9E6"></path>
        <path d="M215,128 L300,128 L300,155 L215,155 L215,128 Z" fill="#F5DEB3"></path>
        <path d="M196,295 L319,295 L319,370 C319,380.493 310.493,389 300,389 L215,389 C204.507,389 196,380.493 196,370 L196,295 Z" fill="#FEF0E6"></path>
        <path d="M220,128 L295,128 L295,155 L220,155 L220,128 Z" fill="#C19A6B"></path>
        <path d="M190,110 L325,110 L325,128 L190,128 L190,110 Z" fill="#A52A2A"></path>
        <ellipse fill="#F8F8F8" opacity="0.6" cx="258" cy="212" rx="42" ry="15"></ellipse>
        <path d="M245,255 C255.493,255 264,263.507 264,274 C264,284.493 255.493,293 245,293 C234.507,293 226,284.493 226,274 C226,263.507 234.507,255 245,255 Z" fill="#F9FAFB"></path>
        <path d="M228,310 C235.732,310 242,316.268 242,324 C242,331.732 235.732,338 228,338 C220.268,338 214,331.732 214,324 C214,316.268 220.268,310 228,310 Z" fill="#F9FAFB"></path>
        <path d="M270,345 C275.523,345 280,349.477 280,355 C280,360.523 275.523,365 270,365 C264.477,365 260,360.523 260,355 C260,349.477 264.477,345 270,345 Z" fill="#F9FAFB"></path>
        <path d="M240,175 L275,175 L275,205 L240,205 L240,175 Z" fill="#FEF0E6"></path>
        <path d="M260,185 L275,185 L275,195 L260,195 L260,185 Z" fill="#FFFFFF"></path>
    </g>
</svg>